<?xml version="1.0" encoding="UTF-8"?> <!-- Generator: Adobe Illustrator 24.0.1, SVG Export Plug-In . SVG Version: 6.00 Build 0) --> <svg xmlns="http://www.w3.org/2000/svg" xmlns:xlink="http://www.w3.org/1999/xlink" id="Layer_1" x="0px" y="0px" viewBox="0 0 841.89 595.28" style="enable-background:new 0 0 841.89 595.28;" xml:space="preserve"> <style type="text/css"> .st0{fill-rule:evenodd;clip-rule:evenodd;fill:#1C7AC0;} .st1{fill:#FFFFFF;} .st2{fill:#030303;} .st3{fill:#0278BA;} .st4{fill-rule:evenodd;clip-rule:evenodd;} .st5{fill-rule:evenodd;clip-rule:evenodd;fill:#FFFFFF;} </style> <g> <path class="st0" d="M165.44,113.85c-99.31,0-101.72,78.85-101.72,78.85s-1.2,71.02-0.6,146.86c0.6,75.84,98.71,78.32,98.71,78.32 l48.75-0.19l86.67,80.77l-24.68-80.65c0,0,297.93,0.48,403.26-0.12c105.33-0.6,103.64-75.72,103.64-75.72s-0.12-69.22-0.12-148.67 c0-79.45-102.92-79.45-102.92-79.45H165.44z"></path> <path class="st1" d="M580.86,188.08v74.19h7.12c11.55,0,20.21-1.02,25.97-3.16c5.76-2.13,10.28-5.97,13.56-11.51 c3.28-5.54,4.95-12.75,4.95-21.66c0-12.92-3.03-22.43-9.08-28.61c-6.01-6.18-15.73-9.25-29.16-9.25H580.86z M580.86,271.14v47.5 c0,9.17,0.55,14.92,1.66,17.27c1.15,2.39,3.11,4.31,5.93,5.71c2.86,1.41,8.14,2.13,15.9,2.13v4.61h-90.91v-4.61 c7.84,0,17.31-0.74,20.13-2.22c2.76-1.45,4.73-3.33,5.88-5.67c1.11-2.34,1.66-8.06,1.66-17.23V208.72c0-9.17-0.55-14.92-1.66-17.31 c-1.15-2.39-3.13-4.24-5.97-5.67c-2.82-1.42-12.28-2.13-20.04-2.13v-4.65l82.89,0c20.51,0,35.48,1.45,44.98,4.26 c9.47,2.8,17.23,8.06,23.24,15.69c5.97,7.59,9,16.54,9,26.78c0,12.49-4.52,22.81-13.52,31c-5.76,5.16-13.77,9.04-24.09,11.6 l40.72,57.35c5.33,7.42,9.12,12.02,11.34,13.86c3.45,2.6,7.38,4.01,11.9,4.26v4.61h-53.34l-54.58-77.22H580.86z M393.34,290.63 l46-111.67l72.85,0.01v4.65l-9.41-0.01c-4.97,0-9,0.87-11.98,2.6c-2.07,1.2-3.75,3.16-5.03,5.89c-0.89,2-1.36,7.2-1.36,15.6v111.66 c0,8.66,0.47,14.07,1.36,16.24c0.94,2.18,2.82,4.05,5.63,5.67c2.86,1.65,6.61,2.47,11.38,2.47h9.4v4.61h-92.37v-4.61h5.5 c5.03,0,9-0.9,12.02-2.64c2.05-1.15,3.75-3.16,4.99-6.01c0.9-1.96,1.37-7.21,1.37-15.73V193.84l-64.94,154.52h-3.03l-65.96-153.41 v119.3c0,8.31,0.21,13.47,0.64,15.39c1.07,4.14,3.45,7.55,7.08,10.15c3.62,2.64,9.3,3.97,17.06,3.97v4.61h-60.89v-4.61h4.65 c3.75,0,7.25-0.56,10.49-1.84c3.24-1.28,5.71-3.03,7.38-5.16c1.66-2.17,2.94-5.24,3.88-9.12c0.17-0.94,0.26-5.16,0.26-12.75V207.7 c0-8.57-0.47-13.9-1.36-16.03c-0.94-2.13-2.81-4.02-5.63-5.63c-2.85-1.63-6.66-2.43-11.38-2.43h-8.27v-4.65h72.1L393.34,290.63z M179.9,183.61v-4.65l92.5,0l-0.01,4.66l-7.95-0.01c-4.98,0-8.99,0.87-11.98,2.6c-2.08,1.2-3.75,3.16-4.99,6.01 c-0.94,2-1.41,7.25-1.41,15.73v82.93c0,16.24-1.62,28.06-4.86,35.43c-3.24,7.38-9,13.52-17.31,18.51 c-8.27,4.94-18.25,7.42-29.89,7.42c-14.24,0-25.75-3.75-34.53-11.26c-8.83-7.5-13.22-15.78-13.22-24.86 c0-5.84,1.79-10.53,5.37-14.15c3.58-3.62,7.97-5.46,13.13-5.46c5.07,0,9.34,1.62,12.79,4.86c3.45,3.28,5.2,7.25,5.2,12.02 c0,2.3-0.3,4.35-0.89,6.1c-0.3,0.85-1.62,2.94-3.92,6.31c-2.3,3.37-3.41,5.76-3.41,7.21c0,2.13,1.07,4.01,3.24,5.58 c3.16,2.35,7.29,3.54,12.37,3.54c3.58,0,6.52-0.94,8.87-2.77c2.3-1.83,3.97-4.69,4.94-8.57c0.94-3.84,1.41-14.62,1.41-32.28v-90.56 c0-8.65-0.47-14.07-1.41-16.24c-0.98-2.17-2.86-4.05-5.63-5.67c-2.81-1.62-6.57-2.43-11.3-2.43H179.9z"></path> <path class="st2" d="M601.31,451.65h-3.56v6.21h-7.34v-6.21h-3.56v17.46h3.56v-8.04h7.34v8.04h3.56V451.65z M577.85,462.61 c-0.1,0.26-0.23,0.55-0.38,0.88c-0.15,0.32-0.33,0.65-0.55,0.97c-0.21,0.33-0.48,0.63-0.79,0.91c-0.31,0.28-0.67,0.5-1.1,0.67 c-0.42,0.17-0.91,0.25-1.47,0.26c-0.59,0-1.16-0.11-1.72-0.34c-0.56-0.23-1.07-0.58-1.53-1.05c-0.45-0.47-0.82-1.07-1.08-1.81 c-0.27-0.74-0.41-1.62-0.42-2.63c0.01-1.06,0.14-1.98,0.4-2.75c0.26-0.78,0.62-1.43,1.06-1.94c0.45-0.51,0.96-0.89,1.54-1.14 c0.58-0.25,1.18-0.37,1.82-0.37c0.21,0,0.46,0.02,0.74,0.06c0.29,0.05,0.59,0.14,0.89,0.27c0.31,0.13,0.6,0.33,0.88,0.58 c0.28,0.25,0.51,0.59,0.7,1c0.12,0.26,0.21,0.51,0.26,0.75c0.05,0.24,0.1,0.49,0.13,0.73l3.58-0.96c-0.07-0.26-0.18-0.58-0.32-0.95 c-0.14-0.37-0.32-0.76-0.55-1.18c-0.23-0.41-0.53-0.82-0.88-1.22c-0.35-0.4-0.79-0.77-1.3-1.1c-0.51-0.33-1.12-0.59-1.81-0.79 c-0.7-0.19-1.51-0.3-2.42-0.3c-1.05,0-1.99,0.13-2.81,0.39c-0.83,0.25-1.55,0.6-2.17,1.05c-0.62,0.45-1.15,0.97-1.59,1.56 c-0.44,0.59-0.79,1.23-1.06,1.91c-0.27,0.68-0.47,1.38-0.59,2.1c-0.12,0.72-0.19,1.43-0.19,2.14c0,0.92,0.1,1.8,0.28,2.65 c0.18,0.84,0.45,1.62,0.79,2.34c0.35,0.72,0.77,1.35,1.25,1.89c0.29,0.32,0.64,0.62,1.04,0.92c0.4,0.29,0.85,0.56,1.35,0.79 c0.5,0.23,1.06,0.42,1.67,0.55c0.61,0.14,1.26,0.2,1.98,0.21c0.8,0,1.58-0.1,2.32-0.3c0.75-0.2,1.45-0.52,2.11-0.96 c0.65-0.44,1.25-1.01,1.78-1.7c0.53-0.7,0.97-1.54,1.34-2.53L577.85,462.61z M560.07,465.9h-9.86v-4.77h6.97v-3.11h-6.97v-3.44 h9.32v-2.92h-12.88v17.46h13.42V465.9z M536.81,454.57h4.94v-2.92h-13.4v2.92h4.9v14.54h3.56V454.57z M521.67,460.19 c0.01,0.98-0.1,1.84-0.34,2.6c-0.23,0.75-0.56,1.38-0.98,1.9c-0.43,0.51-0.92,0.9-1.49,1.17c-0.57,0.26-1.18,0.4-1.84,0.4 c-0.47,0-0.92-0.07-1.33-0.21c-0.41-0.13-0.79-0.32-1.13-0.56c-0.34-0.24-0.63-0.51-0.88-0.82c-0.29-0.37-0.53-0.78-0.72-1.25 c-0.19-0.47-0.33-0.95-0.43-1.45c-0.1-0.5-0.14-1-0.14-1.48c0-0.59,0.06-1.18,0.18-1.76c0.12-0.58,0.3-1.13,0.55-1.65 c0.24-0.52,0.55-0.98,0.93-1.38c0.37-0.4,0.81-0.72,1.32-0.94c0.51-0.23,1.08-0.34,1.72-0.35c0.71,0.01,1.35,0.15,1.93,0.45 c0.57,0.29,1.05,0.69,1.44,1.21c0.35,0.44,0.64,1.01,0.86,1.69C521.53,458.43,521.65,459.25,521.67,460.19z M525.3,460.48 c0.01-1.17-0.12-2.25-0.4-3.22c-0.28-0.98-0.67-1.84-1.18-2.6c-0.51-0.76-1.11-1.4-1.8-1.92c-0.69-0.52-1.44-0.92-2.25-1.19 c-0.82-0.27-1.67-0.41-2.56-0.41c-0.95,0-1.84,0.15-2.69,0.44c-0.84,0.3-1.62,0.72-2.31,1.26c-0.7,0.55-1.3,1.2-1.81,1.97 c-0.51,0.76-0.9,1.62-1.18,2.56c-0.28,0.94-0.42,1.95-0.42,3.03c0,1.01,0.12,1.97,0.37,2.88c0.24,0.92,0.6,1.76,1.07,2.52 c0.47,0.77,1.04,1.44,1.71,2c0.68,0.56,1.44,1.01,2.3,1.32c0.86,0.31,1.8,0.47,2.84,0.47c0.89,0,1.71-0.12,2.47-0.35 c0.75-0.22,1.43-0.53,2.03-0.92c0.6-0.4,1.12-0.84,1.56-1.35c0.43-0.49,0.81-1.06,1.15-1.72c0.33-0.66,0.59-1.39,0.79-2.19 C525.18,462.27,525.28,461.41,525.3,460.48z M495.35,461.32h6.82v-3.12h-6.82v-3.58h8.8v-2.97h-12.39v17.46h3.58V461.32z M484.31,451.65h-3.24v11.87l-7.05-11.87h-3.66v17.46h3.26V457.1l7.14,12.02h3.54V451.65z M462.86,451.65h-3.56v17.46h3.56V451.65z "></path> <path class="st3" d="M591.36,522.93c0,1.04-0.19,1.94-0.57,2.69c-0.37,0.75-0.92,1.33-1.65,1.73c-0.73,0.4-1.63,0.61-2.7,0.62 c-1.1-0.01-2.08-0.2-2.91-0.59c-0.83-0.38-1.54-0.91-2.13-1.57c-0.59-0.67-1.07-1.43-1.46-2.27c-0.38-0.85-0.68-1.75-0.9-2.69 c-0.22-0.94-0.37-1.88-0.46-2.82c-0.09-0.94-0.13-1.83-0.13-2.67c0-0.85,0.05-1.74,0.18-2.68c0.12-0.94,0.32-1.88,0.59-2.83 c0.27-0.94,0.62-1.83,1.06-2.69c0.44-0.85,0.98-1.6,1.61-2.27c0.63-0.66,1.38-1.19,2.23-1.57c0.85-0.38,1.83-0.57,2.93-0.58 c1.38,0.01,2.57,0.27,3.57,0.77c1.01,0.5,1.85,1.19,2.53,2.07c0.68,0.87,1.22,1.87,1.62,2.98c0.4,1.11,0.67,2.28,0.83,3.51h0.66 l2.5-7.94c-1.67-0.87-3.59-1.53-5.76-2c-2.18-0.46-4.54-0.7-7.09-0.7c-1.59,0-3.14,0.19-4.65,0.57c-1.5,0.38-2.91,0.94-4.21,1.7 c-1.3,0.75-2.45,1.69-3.44,2.8c-0.99,1.12-1.77,2.42-2.32,3.89c-0.56,1.47-0.84,3.12-0.85,4.95c0.01,1.83,0.29,3.48,0.85,4.95 c0.55,1.47,1.33,2.77,2.32,3.89c0.99,1.12,2.13,2.05,3.44,2.8c1.31,0.76,2.71,1.32,4.21,1.7c1.51,0.38,3.06,0.57,4.65,0.57 c1.34,0,2.58-0.07,3.73-0.21c1.16-0.14,2.26-0.35,3.3-0.63c1.04-0.28,2.06-0.62,3.06-1.02c1-0.41,2.01-0.88,3.04-1.41 c-0.23-0.74-0.38-1.47-0.43-2.21c-0.05-0.74-0.07-1.47-0.06-2.21c-0.01-1.26,0.06-2.31,0.2-3.15c0.14-0.84,0.41-1.48,0.81-1.92 c0.4-0.44,0.97-0.69,1.73-0.74v-0.65c-0.8,0-1.61,0.02-2.45,0.04c-0.84,0.03-1.66,0.05-2.48,0.08c-0.82,0.03-1.59,0.04-2.32,0.04 c-1.07-0.01-2.2-0.04-3.38-0.08c-1.19-0.05-2.38-0.08-3.57-0.08v0.65c0.85,0.12,1.55,0.26,2.1,0.44c0.55,0.18,0.99,0.43,1.3,0.76 c0.31,0.33,0.54,0.77,0.67,1.34c0.13,0.57,0.19,1.31,0.18,2.21V522.93z M537.54,502.75c0.81,0.18,1.45,0.46,1.92,0.87 c0.47,0.4,0.81,0.89,1.03,1.47c0.22,0.58,0.35,1.22,0.42,1.94c0.05,0.71,0.08,1.47,0.07,2.27v10.4c0,0.59-0.05,1.22-0.14,1.89 c-0.1,0.67-0.25,1.35-0.46,2.02c-0.21,0.67-0.49,1.3-0.83,1.9c-0.34,0.59-0.76,1.11-1.25,1.53c-0.49,0.43-1.07,0.74-1.73,0.93v0.65 c0.85-0.01,1.68-0.03,2.52-0.08c0.83-0.05,1.63-0.07,2.4-0.08c0.51,0,1.05,0.01,1.61,0.04c0.57,0.03,1.15,0.05,1.73,0.08 c0.59,0.03,1.17,0.04,1.73,0.04v-0.7c-0.68-0.18-1.26-0.48-1.74-0.91c-0.48-0.42-0.87-0.93-1.17-1.52c-0.3-0.59-0.54-1.22-0.7-1.9 c-0.16-0.67-0.28-1.34-0.35-2.01c-0.06-0.67-0.09-1.3-0.09-1.89v-12.65l20.18,21.12c0.13,0.14,0.27,0.3,0.44,0.47 c0.16,0.16,0.32,0.31,0.48,0.44c0.16,0.12,0.31,0.19,0.43,0.2h0.08c0.1,0,0.21-0.03,0.33-0.12c0.12-0.08,0.22-0.21,0.32-0.4 c0.09-0.19,0.13-0.45,0.13-0.79v-16.95c0-0.59,0.05-1.22,0.14-1.89c0.1-0.68,0.25-1.34,0.46-2.02c0.21-0.67,0.49-1.3,0.83-1.9 c0.34-0.59,0.76-1.11,1.25-1.54c0.49-0.43,1.07-0.74,1.73-0.93v-0.65c-0.85,0.01-1.68,0.03-2.52,0.08 c-0.83,0.05-1.63,0.07-2.39,0.08c-0.5,0-1.04-0.01-1.62-0.04c-0.57-0.03-1.15-0.05-1.73-0.08c-0.59-0.03-1.16-0.04-1.73-0.04v0.7 c0.69,0.18,1.27,0.48,1.74,0.91c0.48,0.42,0.87,0.94,1.17,1.52c0.3,0.59,0.54,1.22,0.7,1.9c0.17,0.67,0.28,1.34,0.35,2.01 c0.06,0.67,0.1,1.3,0.09,1.89v6.84l-16.17-15.76c-0.54,0-1.08,0.01-1.66,0.04c-0.57,0.03-1.13,0.05-1.68,0.08 c-0.56,0.03-1.08,0.04-1.58,0.04c-0.74-0.01-1.52-0.03-2.33-0.08c-0.81-0.05-1.62-0.07-2.42-0.08V502.75z M512.08,515.35 c0.01-2.88,0.32-5.27,0.93-7.13c0.61-1.86,1.48-3.24,2.59-4.14c1.11-0.89,2.42-1.34,3.93-1.34c1.51-0.01,2.82,0.44,3.94,1.34 c1.11,0.9,1.97,2.28,2.59,4.14c0.61,1.86,0.92,4.24,0.93,7.13c-0.01,2.89-0.32,5.26-0.93,7.12c-0.62,1.87-1.47,3.25-2.59,4.15 c-1.11,0.89-2.43,1.34-3.94,1.34c-1.51,0.01-2.82-0.44-3.93-1.34c-1.11-0.9-1.98-2.28-2.59-4.15 C512.4,520.61,512.08,518.24,512.08,515.35z M504.06,515.35c0.01,1.83,0.29,3.48,0.85,4.95c0.55,1.47,1.33,2.77,2.32,3.89 c0.99,1.12,2.13,2.05,3.44,2.8c1.31,0.76,2.71,1.32,4.22,1.7c1.51,0.38,3.06,0.57,4.65,0.57s3.14-0.19,4.65-0.57 c1.5-0.38,2.91-0.94,4.22-1.7c1.3-0.75,2.45-1.68,3.44-2.8c0.99-1.12,1.77-2.41,2.32-3.89c0.56-1.47,0.85-3.12,0.85-4.95 c-0.01-1.83-0.29-3.48-0.85-4.95c-0.55-1.47-1.33-2.77-2.32-3.89c-0.99-1.12-2.13-2.05-3.44-2.8c-1.31-0.76-2.71-1.32-4.22-1.7 c-1.51-0.38-3.06-0.57-4.65-0.57s-3.14,0.19-4.65,0.57c-1.5,0.38-2.91,0.94-4.22,1.7c-1.3,0.75-2.45,1.69-3.44,2.8 c-0.99,1.12-1.77,2.42-2.32,3.89C504.35,511.87,504.06,513.53,504.06,515.35z M484.08,507.33c-0.01-0.9,0.07-1.67,0.22-2.3 c0.15-0.63,0.41-1.14,0.78-1.51c0.36-0.38,0.87-0.63,1.5-0.77v-0.65c-1.1,0.01-2.15,0.03-3.15,0.08c-1,0.05-1.96,0.07-2.91,0.08 c-0.93-0.01-1.9-0.03-2.91-0.08c-1-0.05-2.05-0.07-3.15-0.08v0.65c0.64,0.14,1.13,0.39,1.48,0.77c0.35,0.38,0.6,0.88,0.74,1.51 c0.14,0.63,0.2,1.4,0.2,2.3v13.34c0.01,0.93-0.02,1.81-0.07,2.65c-0.05,0.83-0.19,1.58-0.4,2.24c-0.22,0.65-0.55,1.18-1.01,1.58 c-0.46,0.4-1.08,0.61-1.87,0.66v0.82c0.61,0,1.22-0.01,1.81-0.03c0.6-0.01,1.19-0.03,1.79-0.05c0.57-0.02,1.15-0.04,1.71-0.05 c0.56-0.02,1.11-0.03,1.64-0.03c1.87,0,3.62,0.01,5.27,0.03c1.64,0.01,3.21,0.03,4.69,0.05c1.49,0.02,2.92,0.04,4.31,0.05 c1.38,0.02,2.76,0.03,4.11,0.03l2.99-9.21l-0.65-0.29c-0.59,0.75-1.25,1.5-1.98,2.24c-0.73,0.75-1.52,1.45-2.36,2.11 c-0.84,0.67-1.73,1.26-2.67,1.78c-0.93,0.52-1.9,0.93-2.9,1.22c-1,0.3-2.02,0.45-3.06,0.46c-1.03,0.01-1.85-0.18-2.46-0.55 c-0.61-0.38-1.04-0.98-1.3-1.82c-0.26-0.82-0.39-1.92-0.38-3.28V507.33z M453.55,509.17l3.72,7.41h-7.37L453.55,509.17z M457.93,517.97l2.01,3.85c0.26,0.5,0.5,0.99,0.71,1.47c0.2,0.49,0.38,0.95,0.5,1.38c0.12,0.43,0.18,0.8,0.18,1.12 c0,0.51-0.09,0.89-0.28,1.15c-0.18,0.26-0.44,0.44-0.78,0.56c-0.33,0.12-0.71,0.21-1.15,0.3v0.82c1.15-0.01,2.3-0.03,3.43-0.08 c1.13-0.05,2.21-0.07,3.24-0.08c0.7,0,1.45,0.01,2.23,0.04c0.79,0.03,1.58,0.05,2.39,0.08c0.8,0.03,1.58,0.04,2.34,0.04v-0.94 c-0.31-0.05-0.63-0.17-0.94-0.34c-0.31-0.16-0.64-0.42-0.98-0.77c-0.34-0.34-0.71-0.8-1.11-1.39c-0.39-0.59-0.83-1.32-1.31-2.2 l-10.64-19.97c-0.09-0.18-0.2-0.38-0.35-0.62c-0.15-0.24-0.3-0.46-0.45-0.64c-0.16-0.18-0.28-0.29-0.38-0.29h-0.08 c-0.08,0.01-0.19,0.09-0.31,0.26c-0.12,0.17-0.25,0.36-0.37,0.59c-0.12,0.22-0.22,0.42-0.31,0.59l-9.78,18.54 c-0.72,1.34-1.46,2.48-2.21,3.4c-0.75,0.93-1.45,1.66-2.1,2.17c-0.65,0.51-1.17,0.81-1.58,0.89v0.74c0.85-0.01,1.68-0.03,2.52-0.08 c0.83-0.05,1.63-0.07,2.39-0.08c0.51,0,1.05,0.01,1.62,0.04c0.57,0.03,1.15,0.05,1.73,0.08c0.59,0.03,1.17,0.04,1.73,0.04v-0.82 c-0.62-0.12-1.16-0.31-1.62-0.56c-0.47-0.25-0.83-0.6-1.09-1.04c-0.26-0.44-0.39-1-0.4-1.68c0.01-0.42,0.1-0.92,0.29-1.51 c0.18-0.59,0.42-1.21,0.69-1.85l1.56-3.19H457.93z M399.81,520.51c0.01,0.93-0.01,1.81-0.07,2.65c-0.05,0.83-0.17,1.58-0.35,2.24 c-0.19,0.66-0.47,1.18-0.86,1.58c-0.39,0.4-0.92,0.62-1.59,0.66v0.82h12.85v-0.82c-0.65-0.04-1.16-0.2-1.54-0.5 c-0.38-0.29-0.66-0.73-0.83-1.3c-0.18-0.58-0.29-1.31-0.34-2.19c-0.05-0.87-0.07-1.92-0.07-3.12v-2.99 c-0.01-0.74,0.12-1.3,0.39-1.68c0.26-0.38,0.67-0.57,1.25-0.57c0.52,0.01,0.98,0.16,1.37,0.45c0.4,0.29,0.74,0.66,1.03,1.11 c0.3,0.45,0.55,0.92,0.78,1.41c0.22,0.49,0.42,0.93,0.59,1.33l3.72,8.55c0.04,0.1,0.11,0.18,0.2,0.24 c0.09,0.06,0.19,0.09,0.29,0.09h9.7v-0.37c-0.81-0.43-1.55-1.04-2.2-1.81c-0.66-0.78-1.29-1.68-1.9-2.72 c-0.6-1.04-1.23-2.16-1.88-3.37c-0.73-1.34-1.49-2.43-2.27-3.28c-0.78-0.85-1.61-1.49-2.49-1.94c-0.88-0.45-1.83-0.76-2.85-0.93 c-1.02-0.17-2.14-0.25-3.36-0.24v-0.08l7.33-6.02c1.26-0.97,2.57-1.87,3.92-2.69c1.35-0.82,2.78-1.52,4.26-2.1v-0.82 c-0.95,0.01-1.9,0.03-2.86,0.08c-0.96,0.05-1.9,0.07-2.83,0.08c-0.93-0.01-1.87-0.03-2.83-0.08c-0.96-0.05-1.91-0.07-2.86-0.08 v0.74c0.42,0.09,0.78,0.21,1.07,0.36c0.29,0.14,0.52,0.34,0.67,0.59c0.15,0.25,0.22,0.57,0.22,0.98c-0.01,0.19-0.07,0.42-0.18,0.71 c-0.12,0.29-0.28,0.59-0.47,0.91c-0.19,0.31-0.4,0.62-0.62,0.9c-0.22,0.29-0.44,0.52-0.65,0.72l-6.55,5.97v-6.63 c0-0.87,0.03-1.59,0.1-2.14c0.07-0.56,0.19-1,0.35-1.32c0.17-0.32,0.4-0.57,0.68-0.73c0.29-0.17,0.64-0.3,1.07-0.4v-0.65 c-1,0.01-1.99,0.03-2.97,0.08c-0.98,0.05-1.93,0.07-2.85,0.08c-0.93-0.01-1.87-0.03-2.83-0.08c-0.96-0.05-1.91-0.07-2.86-0.08v0.65 c0.39,0.04,0.73,0.14,1,0.28c0.27,0.14,0.48,0.37,0.64,0.69c0.16,0.32,0.27,0.77,0.34,1.36c0.07,0.58,0.1,1.33,0.1,2.26V520.51z M363.99,502.75c0.81,0.18,1.45,0.46,1.92,0.87c0.47,0.4,0.81,0.89,1.03,1.47c0.22,0.58,0.35,1.22,0.42,1.94 c0.05,0.71,0.08,1.47,0.07,2.27v10.4c0,0.59-0.05,1.22-0.14,1.89c-0.1,0.67-0.25,1.35-0.46,2.02c-0.21,0.67-0.49,1.3-0.83,1.9 c-0.34,0.59-0.76,1.11-1.25,1.53c-0.49,0.43-1.07,0.74-1.73,0.93v0.65c0.85-0.01,1.69-0.03,2.52-0.08c0.83-0.05,1.63-0.07,2.4-0.08 c0.51,0,1.05,0.01,1.62,0.04c0.56,0.03,1.15,0.05,1.73,0.08c0.59,0.03,1.17,0.04,1.73,0.04v-0.7c-0.68-0.18-1.26-0.48-1.74-0.91 c-0.48-0.42-0.87-0.93-1.17-1.52c-0.3-0.59-0.54-1.22-0.7-1.9c-0.16-0.67-0.28-1.34-0.35-2.01c-0.06-0.67-0.09-1.3-0.09-1.89 v-12.65l20.18,21.12c0.13,0.14,0.27,0.3,0.44,0.47c0.16,0.16,0.32,0.31,0.48,0.44c0.16,0.12,0.31,0.19,0.43,0.2h0.08 c0.1,0,0.21-0.03,0.33-0.12c0.12-0.08,0.22-0.21,0.31-0.4c0.09-0.19,0.13-0.45,0.14-0.79v-16.95c0-0.59,0.05-1.22,0.14-1.89 c0.1-0.68,0.25-1.34,0.46-2.02c0.21-0.67,0.49-1.3,0.83-1.9c0.34-0.59,0.77-1.11,1.25-1.54c0.49-0.43,1.07-0.74,1.73-0.93v-0.65 c-0.85,0.01-1.68,0.03-2.52,0.08c-0.83,0.05-1.63,0.07-2.39,0.08c-0.5,0-1.04-0.01-1.62-0.04c-0.57-0.03-1.15-0.05-1.73-0.08 c-0.59-0.03-1.16-0.04-1.73-0.04v0.7c0.69,0.18,1.27,0.48,1.74,0.91c0.48,0.42,0.86,0.94,1.17,1.52c0.3,0.59,0.54,1.22,0.7,1.9 c0.17,0.67,0.28,1.34,0.35,2.01c0.06,0.67,0.1,1.3,0.09,1.89v6.84l-16.17-15.76c-0.54,0-1.09,0.01-1.66,0.04 c-0.57,0.03-1.13,0.05-1.68,0.08c-0.56,0.03-1.08,0.04-1.58,0.04c-0.74-0.01-1.52-0.03-2.33-0.08c-0.81-0.05-1.62-0.07-2.42-0.08 V502.75z M343.65,509.17l3.72,7.41h-7.37L343.65,509.17z M348.03,517.97l2.01,3.85c0.26,0.5,0.5,0.99,0.71,1.47 c0.2,0.49,0.38,0.95,0.5,1.38c0.12,0.43,0.18,0.8,0.18,1.12c0,0.51-0.09,0.89-0.28,1.15c-0.18,0.26-0.44,0.44-0.78,0.56 c-0.33,0.12-0.71,0.21-1.15,0.3v0.82c1.15-0.01,2.3-0.03,3.43-0.08c1.13-0.05,2.21-0.07,3.24-0.08c0.7,0,1.45,0.01,2.23,0.04 c0.79,0.03,1.58,0.05,2.39,0.08c0.8,0.03,1.58,0.04,2.34,0.04v-0.94c-0.31-0.05-0.63-0.17-0.94-0.34 c-0.31-0.16-0.64-0.42-0.98-0.77c-0.34-0.34-0.71-0.8-1.11-1.39c-0.39-0.59-0.83-1.32-1.31-2.2l-10.64-19.97 c-0.09-0.18-0.2-0.38-0.35-0.62c-0.15-0.24-0.3-0.46-0.45-0.64c-0.16-0.18-0.28-0.29-0.38-0.29h-0.08 c-0.08,0.01-0.18,0.09-0.31,0.26c-0.12,0.17-0.25,0.36-0.37,0.59c-0.12,0.22-0.22,0.42-0.31,0.59l-9.78,18.54 c-0.72,1.34-1.46,2.48-2.21,3.4c-0.75,0.93-1.45,1.66-2.1,2.17c-0.65,0.51-1.17,0.81-1.58,0.89v0.74c0.85-0.01,1.68-0.03,2.52-0.08 c0.83-0.05,1.63-0.07,2.39-0.08c0.51,0,1.05,0.01,1.62,0.04c0.57,0.03,1.15,0.05,1.73,0.08c0.59,0.03,1.17,0.04,1.73,0.04v-0.82 c-0.62-0.12-1.16-0.31-1.62-0.56c-0.47-0.25-0.83-0.6-1.09-1.04c-0.26-0.44-0.39-1-0.4-1.68c0.01-0.42,0.1-0.92,0.29-1.51 c0.18-0.59,0.42-1.21,0.69-1.85l1.56-3.19H348.03z M302.11,520.67c0.01,0.93-0.01,1.81-0.07,2.65c-0.05,0.83-0.18,1.58-0.37,2.24 c-0.2,0.65-0.5,1.18-0.91,1.58c-0.42,0.4-0.98,0.61-1.68,0.66v0.82c0.66,0,1.31-0.01,1.96-0.03c0.65-0.01,1.3-0.03,1.93-0.05 c0.65-0.02,1.3-0.04,1.93-0.05c0.63-0.02,1.24-0.03,1.84-0.03h7.9c0.77,0.01,1.64-0.01,2.6-0.06c0.96-0.05,1.96-0.14,2.99-0.29 c1.03-0.15,2.03-0.38,2.99-0.68c0.97-0.3,1.84-0.72,2.61-1.23c0.78-0.52,1.4-1.17,1.85-1.95c0.46-0.78,0.7-1.73,0.7-2.82 c-0.01-0.93-0.18-1.74-0.5-2.45c-0.33-0.71-0.78-1.32-1.36-1.83c-0.57-0.52-1.22-0.95-1.96-1.3c-0.74-0.35-1.51-0.63-2.33-0.85 c-0.82-0.22-1.64-0.38-2.45-0.49c-0.82-0.11-1.6-0.17-2.33-0.2v-0.08c0.78-0.09,1.59-0.2,2.41-0.35c0.81-0.15,1.6-0.36,2.35-0.63 c0.76-0.27,1.43-0.64,2.03-1.09c0.6-0.45,1.08-1.01,1.43-1.7c0.35-0.69,0.53-1.52,0.54-2.5c-0.01-0.89-0.21-1.65-0.59-2.28 c-0.38-0.63-0.9-1.15-1.56-1.58c-0.65-0.41-1.38-0.75-2.2-0.99c-0.82-0.25-1.66-0.43-2.52-0.55c-0.86-0.12-1.71-0.2-2.52-0.23 c-0.81-0.03-1.55-0.05-2.19-0.05h-8.8c-0.45,0-0.92-0.01-1.4-0.03c-0.48-0.01-0.95-0.03-1.43-0.05c-0.47-0.02-0.95-0.04-1.43-0.05 c-0.48-0.02-0.96-0.03-1.43-0.03v0.65c0.52,0.14,0.94,0.39,1.22,0.77c0.29,0.38,0.48,0.88,0.59,1.51c0.11,0.63,0.16,1.4,0.16,2.3 V520.67z M309.31,503.57h1.35c1.37,0.01,2.56,0.1,3.58,0.25c1.02,0.15,1.85,0.41,2.52,0.77c0.67,0.36,1.16,0.86,1.48,1.51 c0.31,0.64,0.47,1.47,0.44,2.46c-0.01,1.12-0.24,2.02-0.7,2.71c-0.45,0.68-1.06,1.2-1.83,1.56c-0.76,0.36-1.62,0.6-2.57,0.72 c-0.95,0.12-1.92,0.18-2.93,0.17h-1.35V503.57z M309.31,515.03h1.76c0.86-0.01,1.75,0.03,2.65,0.1c0.91,0.07,1.78,0.22,2.63,0.44 c0.85,0.23,1.61,0.55,2.28,0.98c0.68,0.43,1.22,1,1.61,1.72c0.4,0.71,0.6,1.6,0.61,2.65c-0.01,1.38-0.27,2.53-0.8,3.45 c-0.53,0.92-1.29,1.61-2.27,2.07c-0.98,0.47-2.16,0.7-3.51,0.7c-0.85,0.01-1.56-0.03-2.15-0.12c-0.58-0.08-1.06-0.24-1.42-0.48 c-0.37-0.25-0.65-0.61-0.85-1.08c-0.2-0.48-0.34-1.11-0.41-1.88c-0.08-0.78-0.11-1.75-0.12-2.91V515.03z"></path> </g> </svg> 